<svg width="405" height="84" xmlns="http://www.w3.org/2000/svg" xmlns:xlink="http://www.w3.org/1999/xlink" xml:space="preserve" overflow="hidden"><g transform="translate(-277 -148)"><g><g><g><g><path d="M41.0503 0 29.9584 25.9016 15.3839 59.9375 49.2724 45.6219 67.2227 38.0401Z" fill="#8087E8" fill-rule="nonzero" fill-opacity="1" transform="matrix(1.00941 0 0 1 287.975 157.882)"/><path d="M46.702 31.3567 49.2734 45.6219 67.2237 38.0401Z" fill="#30426B" fill-rule="nonzero" fill-opacity="1" transform="matrix(1.00941 0 0 1 287.975 157.882)"/><path d="M41.0503 0 46.702 31.3577 67.2227 38.0401Z" fill="#6699A1" fill-rule="nonzero" fill-opacity="1" transform="matrix(1.00941 0 0 1 287.975 157.882)"/><path d="M46.702 31.3567 67.2237 38.0401 29.9593 25.9007 15.3839 59.9375 49.2734 45.6219Z" fill="#78758C" fill-rule="nonzero" fill-opacity="1" transform="matrix(1.00941 0 0 1 287.975 157.882)"/><path d="M15.3839 59.9375 29.9584 25.9016 0 16.1428Z" fill="#A3EDBA" fill-rule="nonzero" fill-opacity="1" transform="matrix(1.00941 0 0 1 287.975 157.882)"/><path d="M49.2734 45.6219 52.5603 63.8499 67.2237 38.0401Z" fill="#6699A1" fill-rule="nonzero" fill-opacity="1" transform="matrix(1.00941 0 0 1 287.975 157.882)"/><path d="M41.0503 0 29.9584 25.9016 46.702 31.3577Z" fill="#8087E8" fill-rule="nonzero" fill-opacity="1" transform="matrix(1.00941 0 0 1 287.975 157.882)"/><path d="M20.4752 13.8926 3.65548 13.8926 3.65548 23.5477C3.65548 24.5725 2.85205 25.3769 1.82824 25.3769 0.803431 25.3769-4.28894e-06 24.5735-4.28894e-06 23.5477L-4.28894e-06 2.04664C-4.28894e-06 1.02184 0.803431 0.216425 1.82824 0.216425 2.85205 0.216425 3.65548 1.01986 3.65548 2.04664L3.65548 10.3834 20.4752 10.3834 20.4752 2.04664C20.4752 1.02184 21.2797 0.216425 22.3035 0.216425 23.3273 0.216425 24.1317 1.01986 24.1317 2.04664L24.1317 23.5447C24.1317 24.5695 23.3273 25.3739 22.3035 25.3739 21.2797 25.3739 20.4752 24.5705 20.4752 23.5447L20.4752 13.8926Z" stroke="#F0F0F0" stroke-width="1.97647" stroke-linecap="butt" stroke-linejoin="miter" stroke-miterlimit="4" stroke-opacity="1" fill="#F0F0F0" fill-rule="nonzero" fill-opacity="1" transform="matrix(1.00941 0 0 1 385.757 178.923)"/><path d="M38.7556 23.5447C38.7556 24.5695 37.9512 25.3739 36.9254 25.3739 35.8996 25.3739 35.0952 24.5705 35.0952 23.5447L35.0952 2.04664C35.0952 1.02184 35.8996 0.216425 36.9254 0.216425 37.9512 0.216425 38.7556 1.01986 38.7556 2.04664L38.7556 23.5447Z" stroke="#F0F0F0" stroke-width="1.97647" stroke-linecap="butt" stroke-linejoin="miter" stroke-miterlimit="4" stroke-opacity="1" fill="#F0F0F0" fill-rule="nonzero" fill-opacity="1" transform="matrix(1.00941 0 0 1 385.757 178.923)"/><path d="M65.5882 14.5508C65.5882 13.527 66.3926 12.7976 67.4184 12.7976 68.4402 12.7976 69.2486 13.6011 69.2486 14.6249L69.2486 20.4031C69.2486 20.8419 69.0253 21.4991 68.6606 21.8647 66.3215 24.2058 63.1769 25.5933 59.5926 25.5933 52.499 25.5933 46.7959 19.8902 46.7959 12.7976 46.7959 5.70113 52.499 0.000988897 59.5926 0.000988897 63.1769 0.000988897 66.3215 1.38946 68.6606 3.72762 69.3899 4.45892 69.3899 5.55784 68.6606 6.28913 67.9283 7.01845 66.7612 7.09256 66.0289 6.36028 64.347 4.68127 62.1521 3.65647 59.5926 3.65647 54.5486 3.65647 50.4524 7.75172 50.4524 12.7976 50.4524 17.8416 54.5496 21.9388 59.5926 21.9388 61.9317 21.9388 63.9813 21.1354 65.5882 19.743L65.5882 14.5508Z" stroke="#F0F0F0" stroke-width="1.97647" stroke-linecap="butt" stroke-linejoin="miter" stroke-miterlimit="4" stroke-opacity="1" fill="#F0F0F0" fill-rule="nonzero" fill-opacity="1" transform="matrix(1.00941 0 0 1 385.757 178.923)"/><path d="M99.2248 13.8926 82.406 13.8926 82.406 23.5477C82.406 24.5725 81.5986 25.3769 80.5758 25.3769 79.551 25.3769 78.7485 24.5735 78.7485 23.5477L78.7485 2.04664C78.7485 1.02184 79.551 0.216425 80.5758 0.216425 81.5976 0.216425 82.406 1.01986 82.406 2.04664L82.406 10.3834 99.2248 10.3834 99.2248 2.04664C99.2248 1.02184 100.028 0.216425 101.052 0.216425 102.077 0.216425 102.882 1.01986 102.882 2.04664L102.882 23.5447C102.882 24.5695 102.079 25.3739 101.052 25.3739 100.031 25.3739 99.2248 24.5705 99.2248 23.5447L99.2248 13.8926Z" stroke="#F0F0F0" stroke-width="1.97647" stroke-linecap="butt" stroke-linejoin="miter" stroke-miterlimit="4" stroke-opacity="1" fill="#F0F0F0" fill-rule="nonzero" fill-opacity="1" transform="matrix(1.00941 0 0 1 385.757 178.923)"/><path d="M123.719 25.5933C116.622 25.5933 110.922 19.8902 110.922 12.7976 110.922 5.70113 116.625 0.000988897 123.719 0.000988897 127.303 0.000988897 130.448 1.38946 132.787 3.72762 133.517 4.45892 133.517 5.55784 132.787 6.28913 132.055 7.01845 130.885 7.09256 130.153 6.36028 128.474 4.68127 126.279 3.65647 123.719 3.65647 118.673 3.65647 114.579 7.75172 114.579 12.7976 114.579 17.8416 118.673 21.9388 123.719 21.9388 126.279 21.9388 128.546 20.9881 130.228 19.3062 130.959 18.5739 132.055 18.5739 132.787 19.3062 133.517 20.0355 133.517 21.1344 132.787 21.8647 130.447 24.2039 127.302 25.5933 123.719 25.5933Z" stroke="#F0F0F0" stroke-width="1.97647" stroke-linecap="butt" stroke-linejoin="miter" stroke-miterlimit="4" stroke-opacity="1" fill="#F0F0F0" fill-rule="nonzero" fill-opacity="1" transform="matrix(1.00941 0 0 1 385.757 178.923)"/><path d="M161.886 13.8926 145.066 13.8926 145.066 23.5477C145.066 24.5725 144.263 25.3769 143.236 25.3769 142.214 25.3769 141.408 24.5735 141.408 23.5477L141.408 2.04664C141.408 1.02184 142.211 0.216425 143.236 0.216425 144.259 0.216425 145.066 1.01986 145.066 2.04664L145.066 10.3834 161.886 10.3834 161.886 2.04664C161.886 1.02184 162.689 0.216425 163.717 0.216425 164.739 0.216425 165.544 1.01986 165.544 2.04664L165.544 23.5447C165.544 24.5695 164.741 25.3739 163.717 25.3739 162.692 25.3739 161.886 24.5705 161.886 23.5447L161.886 13.8926Z" stroke="#F0F0F0" stroke-width="1.97647" stroke-linecap="butt" stroke-linejoin="miter" stroke-miterlimit="4" stroke-opacity="1" fill="#F0F0F0" fill-rule="nonzero" fill-opacity="1" transform="matrix(1.00941 0 0 1 385.757 178.923)"/><path d="M188.755 1.82725 199.138 22.2304C199.359 22.6681 199.578 23.2542 199.578 23.7661 199.578 24.7899 198.918 25.3749 197.896 25.3749 197.164 25.3749 196.433 25.1555 195.919 24.1317L192.704 17.7695 179.316 17.7695 176.171 24.1317C175.66 25.1555 174.93 25.3749 174.2 25.3749 173.175 25.3749 172.518 24.7889 172.518 23.7661 172.518 23.2532 172.736 22.6701 172.955 22.2304L183.337 1.82725C183.998 0.438777 185.316 0.218401 186.045 0.218401 186.78 0.218401 188.095 0.436801 188.755 1.82725ZM181.073 14.2592 190.944 14.2592 186.045 4.38678 181.073 14.2592Z" stroke="#F0F0F0" stroke-width="1.97647" stroke-linecap="butt" stroke-linejoin="miter" stroke-miterlimit="4" stroke-opacity="1" fill="#F0F0F0" fill-rule="nonzero" fill-opacity="1" transform="matrix(1.00941 0 0 1 385.757 178.923)"/><path d="M219.786 0.36466C224.175 0.36466 227.756 3.58136 227.756 7.96814 227.756 11.845 224.976 14.7712 221.321 15.4283L227.973 22.4488C228.629 23.1069 228.852 24.277 228.117 24.9352 227.39 25.6674 225.998 25.45 225.265 24.6426L216.639 15.5746 210.205 15.5746 210.205 23.6208C210.205 24.6426 209.399 25.3739 208.372 25.3739 207.352 25.3739 206.544 24.5705 206.544 23.5447L206.544 2.19289C206.544 1.17007 207.349 0.36466 208.372 0.36466L219.786 0.36466ZM210.21 3.87487 210.21 12.0654 219.786 12.0654C222.346 12.0654 224.102 10.3103 224.102 7.96814 224.102 5.63096 222.346 3.87289 219.786 3.87289L210.21 3.87487Z" stroke="#F0F0F0" stroke-width="1.97647" stroke-linecap="butt" stroke-linejoin="miter" stroke-miterlimit="4" stroke-opacity="1" fill="#F0F0F0" fill-rule="nonzero" fill-opacity="1" transform="matrix(1.00941 0 0 1 385.757 178.923)"/><path d="M244.382 3.87487 235.242 3.87487C234.221 3.87487 233.414 3.14358 233.414 2.11976 233.414 1.09793 234.218 0.367625 235.242 0.367625L257.181 0.367625C258.206 0.367625 259.012 1.09892 259.012 2.11976 259.012 3.14456 258.208 3.87487 257.181 3.87487L248.041 3.87487 248.041 23.5457C248.041 24.5705 247.238 25.3749 246.214 25.3749 245.189 25.3749 244.382 24.5715 244.382 23.5457L244.382 3.87487Z" stroke="#F0F0F0" stroke-width="1.97647" stroke-linecap="butt" stroke-linejoin="miter" stroke-miterlimit="4" stroke-opacity="1" fill="#F0F0F0" fill-rule="nonzero" fill-opacity="1" transform="matrix(1.00941 0 0 1 385.757 178.923)"/><path d="M267.78 10.2371C267.78 1.09595 273.411 6.62118e-07 277.653 6.62118e-07 278.675 6.62118e-07 279.481 0.803436 279.481 1.82824 279.481 2.85205 278.677 3.65746 277.653 3.65746 274.215 3.65746 271.437 4.38678 271.437 10.2391L271.437 15.3582C271.437 24.4993 265.806 25.5943 261.565 25.5943 260.542 25.5943 259.737 24.7909 259.737 23.7661 259.737 22.7413 260.541 21.9378 261.565 21.9378 265.003 21.9378 267.78 21.2065 267.78 15.3562L267.78 10.2371Z" stroke="#F0F0F0" stroke-width="1.97647" stroke-linecap="butt" stroke-linejoin="miter" stroke-miterlimit="4" stroke-opacity="1" fill="#F0F0F0" fill-rule="nonzero" fill-opacity="1" transform="matrix(1.00941 0 0 1 385.757 178.923)"/><path d="M5.58847 2.96471C5.58847 4.41377 4.41377 5.58847 2.96471 5.58847 1.51564 5.58847 0.340941 4.41377 0.340941 2.96471 0.340941 1.51564 1.51564 0.340941 2.96471 0.340941 4.41377 0.340941 5.58847 1.51564 5.58847 2.96471Z" stroke="#F0F0F0" stroke-width="0.592941" stroke-linecap="butt" stroke-linejoin="miter" stroke-miterlimit="4" stroke-opacity="1" fill="none" fill-rule="nonzero" transform="matrix(1.00941 0 0 1 665.066 198.688)"/><path d="M2.80461 2.72753C2.96767 2.72753 3.08626 2.69492 3.15741 2.63266 3.22856 2.57336 3.26711 2.47256 3.26711 2.33026 3.26711 2.19092 3.22856 2.09308 3.15741 2.03082 3.08626 1.97153 2.96767 1.94188 2.80461 1.94188L2.47256 1.94188 2.47256 2.72753 2.80461 2.72753M2.47256 3.27007 2.47256 4.42631 1.68395 4.42631 1.68395 1.36969 2.88762 1.36969C3.29082 1.36969 3.58433 1.43788 3.77111 1.57426 3.96085 1.70767 4.05275 1.92113 4.05275 2.21464 4.05275 2.41624 4.00532 2.58226 3.90748 2.71271 3.80965 2.84019 3.66438 2.93802 3.46574 2.99732 3.57544 3.024 3.67031 3.08033 3.75628 3.16631 3.84226 3.25228 3.92824 3.38273 4.01421 3.56061L4.44409 4.42631 3.60508 4.42631 3.23153 3.66734C3.15741 3.51614 3.08033 3.40941 3.00325 3.35605 2.92616 3.29972 2.8224 3.27007 2.69492 3.27007L2.47256 3.27007" stroke="#F0F0F0" stroke-width="0.0592941" stroke-linecap="butt" stroke-linejoin="miter" stroke-miterlimit="4" stroke-opacity="1" fill="#F0F0F0" fill-rule="nonzero" fill-opacity="1" transform="matrix(1.00941 0 0 1 665.066 198.688)"/></g></g></g></g></g></svg>